<?xml version="1.0" encoding="utf-8"?>
<svg viewBox="135.844 146.25 103.301 82.18" xmlns="http://www.w3.org/2000/svg">
  <defs>
    <clipPath id="a">
      <path d="M 135.84375 146.175781 L 239.144531 146.175781 L 239.144531 228.675781 L 135.84375 228.675781 Z M 135.84375 146.175781"/>
    </clipPath>
  </defs>
  <g clip-path="url(#a)">
    <path fill="#FFF" d="M 195.886719 146.25 L 197.234375 146.652344 L 236.046875 157.800781 L 239.144531 158.738281 L 239.144531 165.320312 L 236.449219 166.394531 L 200.199219 180.625 L 199.390625 180.894531 L 175.402344 180.894531 L 174.726562 180.625 L 151.816406 172.03125 L 151.683594 172.03125 C 147.882812 170.519531 144.269531 172.988281 144.269531 177 L 144.269531 177.402344 C 144.269531 179.878906 145.527344 181.757812 147.910156 182.910156 C 148.007812 182.957031 148.078125 183 148.179688 183.042969 L 187.394531 197.8125 L 219.875 185.460938 C 229.011719 181.820312 239.144531 188.746094 239.144531 198.484375 L 239.144531 198.886719 C 239.144531 204.902344 235.296875 210.023438 230.117188 212.316406 L 229.980469 212.316406 L 229.847656 212.449219 L 188.878906 227.890625 L 187.394531 228.429688 L 185.914062 227.890625 L 158.691406 217.550781 L 158.824219 217.285156 L 135.644531 208.824219 L 135.644531 199.425781 L 161.789062 209.496094 L 161.789062 209.628906 L 161.925781 209.628906 L 187.394531 219.296875 L 226.613281 204.527344 L 226.882812 204.394531 C 229.265625 203.242188 230.519531 201.363281 230.519531 198.886719 L 230.519531 198.484375 C 230.519531 194.472656 226.910156 192.003906 223.109375 193.515625 L 222.972656 193.515625 L 188.878906 206.40625 L 187.394531 206.945312 L 185.914062 206.40625 L 144.945312 190.964844 L 144.808594 190.832031 L 144.675781 190.832031 C 139.496094 188.539062 135.644531 183.417969 135.644531 177.402344 L 135.644531 177 C 135.644531 170.234375 140.636719 165.152344 146.695312 163.707031 L 146.695312 163.574219 L 148.042969 163.171875 L 194.539062 146.789062 Z M 196.019531 155.382812 L 162.867188 166.929688 L 177.019531 172.300781 L 177.152344 172.300781 L 187.394531 165.453125 L 197.636719 172.300781 L 222.03125 162.765625 Z M 196.019531 155.382812"/>
  </g>
</svg>